# xmcd
#
# Track frame offsets: 
#        150
#        13981
#        27821
#        41426
#        54393
#        66802
#        79414
#        92303
#        104826
#        117811
#        131688
#        144594
#        158451
#        170604
#        184381
#        198275
#        209866
#        223781
#        238884
#
# Disc length: 3519 seconds
#
# Revision: 0
# Processed by: cddbd v1.5.2PL0 Copyright (c) Steve Scherf et al.
# Submitted via: ExactAudioCopy v1.0b4
#
DISCID=190dbd13
DTITLE=Blind Willie Johnson - The Rough Guide to Blind Willie Johnson 
DTITLE=[CD2]
DYEAR=2013
DGENRE=Blues
TTITLE0=Reverend Gary Davis - The Angels Message to Me
TTITLE1=Bukka White - I Am in the Heavenly Way
TTITLE2=Skip James - Jesus Is a Mighty Good Leader
TTITLE3=Roosevelt Graves and Brother - Woke Up This Morning with My Mi
TTITLE3=nd on Jesus
TTITLE4=Kate McTell and Blind Willie - God Don't Like It
TTITLE5=Mississippi John Hurt - Blessed Be the Name
TTITLE6=Blind Joe Taggart - God Gonna Separate the Wheat from the Tare
TTITLE6=s
TTITLE7=Blind Lemon Jefferson - He Arose from the Dead
TTITLE8=Reverend Edward Clayborn (The Guitar Evangelist) - This Time A
TTITLE8=nother Year You May Be Gone
TTITLE9=Bull City Red - I Saw the Light
TTITLE10=Bertha Lee and Charley Patton - Oh Death
TTITLE11=Josh White - Jesus Gonna Make Up My Dying Bed
TTITLE12=Blind Mamie Forehand - Honey in the Rock
TTITLE13=Barbecue Bob - Jesus Blood Can Make Me Whole
TTITLE14=Blind Willie Davis - I Believe I'll Go Back Home
TTITLE15=Mother McCollum - You Can't Hide
TTITLE16=Jaybird Coleman - I'm Gonna Cross the River of Jordan Some O'
TTITLE16=These Days
TTITLE17=Blind Gussie Nesbit - Pure Religion
TTITLE18=Washington Phillips - Denomination Blues
EXTD=
EXTT0=
EXTT1=
EXTT2=
EXTT3=
EXTT4=
EXTT5=
EXTT6=
EXTT7=
EXTT8=
EXTT9=
EXTT10=
EXTT11=
EXTT12=
EXTT13=
EXTT14=
EXTT15=
EXTT16=
EXTT17=
EXTT18=
PLAYORDER=
